<svg xmlns="http://www.w3.org/2000/svg" viewBox="0 0 240 240" role="img" aria-label="Telegram">
  <defs>
    <linearGradient id="tg" x1="0" x2="1">
      <stop offset="0" stop-color="#37aee2"/>
      <stop offset="1" stop-color="#1e96c8"/>
    </linearGradient>
  </defs>
  <rect width="240" height="240" rx="36" fill="url(#tg)"/>
  <path d="M182.6 72.3c-1.6-2.8-5.6-3.8-8.6-2.3L61.8 120.9c-3.1 1.6-5.1 5.1-4.5 8.6 0.6 3.5 3.6 6.1 7.2 6.4l27.2 3.3 5.9 26.3c0.9 4.1 5.1 6.8 9.2 5.9 2.1-0.5 3.7-1.9 4.5-3.8l13.8-30.9 39.8-85.9c1.3-2.8 0.6-6.1-1.8-8.1z" fill="#ffffff" opacity="0.98"/>
  <path d="M68.7 132.2l93.6-41.7c1.4-.6 2.9.6 2.4 2.1l-18.9 77.3c-.3 1.1-1.4 1.8-2.5 1.6l-22.6-3.4-7.6 18.3c-.9 2.1-3.2 3.5-5.5 3.1-1.3-.2-2.3-1-2.8-2.1l-16.9-38.9-20.7-14.3c-1.9-1.4-1.8-4.5.6-5.9z" fill="#ffffff" opacity="0.9"/>
</svg>